<svg xmlns="http://www.w3.org/2000/svg" xml:space="preserve" xmlns:xlink="http://www.w3.org/1999/xlink" style="max-width: 100%;height: auto;" width="999" height="999" viewBox="0 0 999 999">
<defs><mask id="qrmask"><g fill="#ffffff"><g>
<g transform="translate(270,54) scale(4.635)"><rect width="6" height="6"></rect></g>
<g transform="translate(297,54) scale(4.635)"><rect width="6" height="6"></rect></g>
<g transform="translate(324,54) scale(4.635)"><rect width="6" height="6"></rect></g>
<g transform="translate(459,54) scale(4.635)"><rect width="6" height="6"></rect></g>
<g transform="translate(486,54) scale(4.635)"><rect width="6" height="6"></rect></g>
<g transform="translate(513,54) scale(4.635)"><rect width="6" height="6"></rect></g>
<g transform="translate(621,54) scale(4.635)"><rect width="6" height="6"></rect></g>
<g transform="translate(675,54) scale(4.635)"><rect width="6" height="6"></rect></g>
<g transform="translate(702,54) scale(4.635)"><rect width="6" height="6"></rect></g>
<g transform="translate(270,81) scale(4.635)"><rect width="6" height="6"></rect></g>
<g transform="translate(378,81) scale(4.635)"><rect width="6" height="6"></rect></g>
<g transform="translate(432,81) scale(4.635)"><rect width="6" height="6"></rect></g>
<g transform="translate(486,81) scale(4.635)"><rect width="6" height="6"></rect></g>
<g transform="translate(513,81) scale(4.635)"><rect width="6" height="6"></rect></g>
<g transform="translate(540,81) scale(4.635)"><rect width="6" height="6"></rect></g>
<g transform="translate(621,81) scale(4.635)"><rect width="6" height="6"></rect></g>
<g transform="translate(648,81) scale(4.635)"><rect width="6" height="6"></rect></g>
<g transform="translate(702,81) scale(4.635)"><rect width="6" height="6"></rect></g>
<g transform="translate(270,108) scale(4.635)"><rect width="6" height="6"></rect></g>
<g transform="translate(378,108) scale(4.635)"><rect width="6" height="6"></rect></g>
<g transform="translate(405,108) scale(4.635)"><rect width="6" height="6"></rect></g>
<g transform="translate(432,108) scale(4.635)"><rect width="6" height="6"></rect></g>
<g transform="translate(459,108) scale(4.635)"><rect width="6" height="6"></rect></g>
<g transform="translate(486,108) scale(4.635)"><rect width="6" height="6"></rect></g>
<g transform="translate(513,108) scale(4.635)"><rect width="6" height="6"></rect></g>
<g transform="translate(540,108) scale(4.635)"><rect width="6" height="6"></rect></g>
<g transform="translate(621,108) scale(4.635)"><rect width="6" height="6"></rect></g>
<g transform="translate(675,108) scale(4.635)"><rect width="6" height="6"></rect></g>
<g transform="translate(702,108) scale(4.635)"><rect width="6" height="6"></rect></g>
<g transform="translate(378,135) scale(4.635)"><rect width="6" height="6"></rect></g>
<g transform="translate(432,135) scale(4.635)"><rect width="6" height="6"></rect></g>
<g transform="translate(459,135) scale(4.635)"><rect width="6" height="6"></rect></g>
<g transform="translate(540,135) scale(4.635)"><rect width="6" height="6"></rect></g>
<g transform="translate(567,135) scale(4.635)"><rect width="6" height="6"></rect></g>
<g transform="translate(648,135) scale(4.635)"><rect width="6" height="6"></rect></g>
<g transform="translate(675,135) scale(4.635)"><rect width="6" height="6"></rect></g>
<g transform="translate(702,135) scale(4.635)"><rect width="6" height="6"></rect></g>
<g transform="translate(324,162) scale(4.635)"><rect width="6" height="6"></rect></g>
<g transform="translate(432,162) scale(4.635)"><rect width="6" height="6"></rect></g>
<g transform="translate(486,162) scale(4.635)"><rect width="6" height="6"></rect></g>
<g transform="translate(513,162) scale(4.635)"><rect width="6" height="6"></rect></g>
<g transform="translate(621,162) scale(4.635)"><rect width="6" height="6"></rect></g>
<g transform="translate(270,189) scale(4.635)"><rect width="6" height="6"></rect></g>
<g transform="translate(297,189) scale(4.635)"><rect width="6" height="6"></rect></g>
<g transform="translate(351,189) scale(4.635)"><rect width="6" height="6"></rect></g>
<g transform="translate(405,189) scale(4.635)"><rect width="6" height="6"></rect></g>
<g transform="translate(459,189) scale(4.635)"><rect width="6" height="6"></rect></g>
<g transform="translate(513,189) scale(4.635)"><rect width="6" height="6"></rect></g>
<g transform="translate(621,189) scale(4.635)"><rect width="6" height="6"></rect></g>
<g transform="translate(675,189) scale(4.635)"><rect width="6" height="6"></rect></g>
<g transform="translate(702,189) scale(4.635)"><rect width="6" height="6"></rect></g>
<g transform="translate(270,216) scale(4.635)"><rect width="6" height="6"></rect></g>
<g transform="translate(324,216) scale(4.635)"><rect width="6" height="6"></rect></g>
<g transform="translate(378,216) scale(4.635)"><rect width="6" height="6"></rect></g>
<g transform="translate(432,216) scale(4.635)"><rect width="6" height="6"></rect></g>
<g transform="translate(486,216) scale(4.635)"><rect width="6" height="6"></rect></g>
<g transform="translate(540,216) scale(4.635)"><rect width="6" height="6"></rect></g>
<g transform="translate(594,216) scale(4.635)"><rect width="6" height="6"></rect></g>
<g transform="translate(648,216) scale(4.635)"><rect width="6" height="6"></rect></g>
<g transform="translate(702,216) scale(4.635)"><rect width="6" height="6"></rect></g>
<g transform="translate(270,243) scale(4.635)"><rect width="6" height="6"></rect></g>
<g transform="translate(324,243) scale(4.635)"><rect width="6" height="6"></rect></g>
<g transform="translate(459,243) scale(4.635)"><rect width="6" height="6"></rect></g>
<g transform="translate(567,243) scale(4.635)"><rect width="6" height="6"></rect></g>
<g transform="translate(594,243) scale(4.635)"><rect width="6" height="6"></rect></g>
<g transform="translate(621,243) scale(4.635)"><rect width="6" height="6"></rect></g>
<g transform="translate(675,243) scale(4.635)"><rect width="6" height="6"></rect></g>
<g transform="translate(108,270) scale(4.635)"><rect width="6" height="6"></rect></g>
<g transform="translate(135,270) scale(4.635)"><rect width="6" height="6"></rect></g>
<g transform="translate(162,270) scale(4.635)"><rect width="6" height="6"></rect></g>
<g transform="translate(216,270) scale(4.635)"><rect width="6" height="6"></rect></g>
<g transform="translate(270,270) scale(4.635)"><rect width="6" height="6"></rect></g>
<g transform="translate(297,270) scale(4.635)"><rect width="6" height="6"></rect></g>
<g transform="translate(351,270) scale(4.635)"><rect width="6" height="6"></rect></g>
<g transform="translate(405,270) scale(4.635)"><rect width="6" height="6"></rect></g>
<g transform="translate(540,270) scale(4.635)"><rect width="6" height="6"></rect></g>
<g transform="translate(648,270) scale(4.635)"><rect width="6" height="6"></rect></g>
<g transform="translate(675,270) scale(4.635)"><rect width="6" height="6"></rect></g>
<g transform="translate(729,270) scale(4.635)"><rect width="6" height="6"></rect></g>
<g transform="translate(756,270) scale(4.635)"><rect width="6" height="6"></rect></g>
<g transform="translate(783,270) scale(4.635)"><rect width="6" height="6"></rect></g>
<g transform="translate(864,270) scale(4.635)"><rect width="6" height="6"></rect></g>
<g transform="translate(891,270) scale(4.635)"><rect width="6" height="6"></rect></g>
<g transform="translate(918,270) scale(4.635)"><rect width="6" height="6"></rect></g>
<g transform="translate(135,297) scale(4.635)"><rect width="6" height="6"></rect></g>
<g transform="translate(162,297) scale(4.635)"><rect width="6" height="6"></rect></g>
<g transform="translate(189,297) scale(4.635)"><rect width="6" height="6"></rect></g>
<g transform="translate(324,297) scale(4.635)"><rect width="6" height="6"></rect></g>
<g transform="translate(351,297) scale(4.635)"><rect width="6" height="6"></rect></g>
<g transform="translate(459,297) scale(4.635)"><rect width="6" height="6"></rect></g>
<g transform="translate(486,297) scale(4.635)"><rect width="6" height="6"></rect></g>
<g transform="translate(513,297) scale(4.635)"><rect width="6" height="6"></rect></g>
<g transform="translate(594,297) scale(4.635)"><rect width="6" height="6"></rect></g>
<g transform="translate(621,297) scale(4.635)"><rect width="6" height="6"></rect></g>
<g transform="translate(648,297) scale(4.635)"><rect width="6" height="6"></rect></g>
<g transform="translate(675,297) scale(4.635)"><rect width="6" height="6"></rect></g>
<g transform="translate(729,297) scale(4.635)"><rect width="6" height="6"></rect></g>
<g transform="translate(756,297) scale(4.635)"><rect width="6" height="6"></rect></g>
<g transform="translate(837,297) scale(4.635)"><rect width="6" height="6"></rect></g>
<g transform="translate(891,297) scale(4.635)"><rect width="6" height="6"></rect></g>
<g transform="translate(918,297) scale(4.635)"><rect width="6" height="6"></rect></g>
<g transform="translate(54,324) scale(4.635)"><rect width="6" height="6"></rect></g>
<g transform="translate(108,324) scale(4.635)"><rect width="6" height="6"></rect></g>
<g transform="translate(135,324) scale(4.635)"><rect width="6" height="6"></rect></g>
<g transform="translate(162,324) scale(4.635)"><rect width="6" height="6"></rect></g>
<g transform="translate(189,324) scale(4.635)"><rect width="6" height="6"></rect></g>
<g transform="translate(216,324) scale(4.635)"><rect width="6" height="6"></rect></g>
<g transform="translate(270,324) scale(4.635)"><rect width="6" height="6"></rect></g>
<g transform="translate(324,324) scale(4.635)"><rect width="6" height="6"></rect></g>
<g transform="translate(432,324) scale(4.635)"><rect width="6" height="6"></rect></g>
<g transform="translate(486,324) scale(4.635)"><rect width="6" height="6"></rect></g>
<g transform="translate(540,324) scale(4.635)"><rect width="6" height="6"></rect></g>
<g transform="translate(567,324) scale(4.635)"><rect width="6" height="6"></rect></g>
<g transform="translate(594,324) scale(4.635)"><rect width="6" height="6"></rect></g>
<g transform="translate(621,324) scale(4.635)"><rect width="6" height="6"></rect></g>
<g transform="translate(702,324) scale(4.635)"><rect width="6" height="6"></rect></g>
<g transform="translate(729,324) scale(4.635)"><rect width="6" height="6"></rect></g>
<g transform="translate(756,324) scale(4.635)"><rect width="6" height="6"></rect></g>
<g transform="translate(783,324) scale(4.635)"><rect width="6" height="6"></rect></g>
<g transform="translate(891,324) scale(4.635)"><rect width="6" height="6"></rect></g>
<g transform="translate(108,351) scale(4.635)"><rect width="6" height="6"></rect></g>
<g transform="translate(135,351) scale(4.635)"><rect width="6" height="6"></rect></g>
<g transform="translate(189,351) scale(4.635)"><rect width="6" height="6"></rect></g>
<g transform="translate(243,351) scale(4.635)"><rect width="6" height="6"></rect></g>
<g transform="translate(270,351) scale(4.635)"><rect width="6" height="6"></rect></g>
<g transform="translate(378,351) scale(4.635)"><rect width="6" height="6"></rect></g>
<g transform="translate(459,351) scale(4.635)"><rect width="6" height="6"></rect></g>
<g transform="translate(540,351) scale(4.635)"><rect width="6" height="6"></rect></g>
<g transform="translate(567,351) scale(4.635)"><rect width="6" height="6"></rect></g>
<g transform="translate(621,351) scale(4.635)"><rect width="6" height="6"></rect></g>
<g transform="translate(648,351) scale(4.635)"><rect width="6" height="6"></rect></g>
<g transform="translate(756,351) scale(4.635)"><rect width="6" height="6"></rect></g>
<g transform="translate(837,351) scale(4.635)"><rect width="6" height="6"></rect></g>
<g transform="translate(864,351) scale(4.635)"><rect width="6" height="6"></rect></g>
<g transform="translate(891,351) scale(4.635)"><rect width="6" height="6"></rect></g>
<g transform="translate(54,378) scale(4.635)"><rect width="6" height="6"></rect></g>
<g transform="translate(162,378) scale(4.635)"><rect width="6" height="6"></rect></g>
<g transform="translate(216,378) scale(4.635)"><rect width="6" height="6"></rect></g>
<g transform="translate(243,378) scale(4.635)"><rect width="6" height="6"></rect></g>
<g transform="translate(297,378) scale(4.635)"><rect width="6" height="6"></rect></g>
<g transform="translate(324,378) scale(4.635)"><rect width="6" height="6"></rect></g>
<g transform="translate(351,378) scale(4.635)"><rect width="6" height="6"></rect></g>
<g transform="translate(486,378) scale(4.635)"><rect width="6" height="6"></rect></g>
<g transform="translate(513,378) scale(4.635)"><rect width="6" height="6"></rect></g>
<g transform="translate(540,378) scale(4.635)"><rect width="6" height="6"></rect></g>
<g transform="translate(621,378) scale(4.635)"><rect width="6" height="6"></rect></g>
<g transform="translate(702,378) scale(4.635)"><rect width="6" height="6"></rect></g>
<g transform="translate(729,378) scale(4.635)"><rect width="6" height="6"></rect></g>
<g transform="translate(108,405) scale(4.635)"><rect width="6" height="6"></rect></g>
<g transform="translate(243,405) scale(4.635)"><rect width="6" height="6"></rect></g>
<g transform="translate(324,405) scale(4.635)"><rect width="6" height="6"></rect></g>
<g transform="translate(513,405) scale(4.635)"><rect width="6" height="6"></rect></g>
<g transform="translate(567,405) scale(4.635)"><rect width="6" height="6"></rect></g>
<g transform="translate(648,405) scale(4.635)"><rect width="6" height="6"></rect></g>
<g transform="translate(675,405) scale(4.635)"><rect width="6" height="6"></rect></g>
<g transform="translate(756,405) scale(4.635)"><rect width="6" height="6"></rect></g>
<g transform="translate(783,405) scale(4.635)"><rect width="6" height="6"></rect></g>
<g transform="translate(864,405) scale(4.635)"><rect width="6" height="6"></rect></g>
<g transform="translate(918,405) scale(4.635)"><rect width="6" height="6"></rect></g>
<g transform="translate(54,432) scale(4.635)"><rect width="6" height="6"></rect></g>
<g transform="translate(81,432) scale(4.635)"><rect width="6" height="6"></rect></g>
<g transform="translate(108,432) scale(4.635)"><rect width="6" height="6"></rect></g>
<g transform="translate(162,432) scale(4.635)"><rect width="6" height="6"></rect></g>
<g transform="translate(216,432) scale(4.635)"><rect width="6" height="6"></rect></g>
<g transform="translate(270,432) scale(4.635)"><rect width="6" height="6"></rect></g>
<g transform="translate(324,432) scale(4.635)"><rect width="6" height="6"></rect></g>
<g transform="translate(351,432) scale(4.635)"><rect width="6" height="6"></rect></g>
<g transform="translate(459,432) scale(4.635)"><rect width="6" height="6"></rect></g>
<g transform="translate(486,432) scale(4.635)"><rect width="6" height="6"></rect></g>
<g transform="translate(540,432) scale(4.635)"><rect width="6" height="6"></rect></g>
<g transform="translate(594,432) scale(4.635)"><rect width="6" height="6"></rect></g>
<g transform="translate(648,432) scale(4.635)"><rect width="6" height="6"></rect></g>
<g transform="translate(702,432) scale(4.635)"><rect width="6" height="6"></rect></g>
<g transform="translate(729,432) scale(4.635)"><rect width="6" height="6"></rect></g>
<g transform="translate(756,432) scale(4.635)"><rect width="6" height="6"></rect></g>
<g transform="translate(837,432) scale(4.635)"><rect width="6" height="6"></rect></g>
<g transform="translate(864,432) scale(4.635)"><rect width="6" height="6"></rect></g>
<g transform="translate(891,432) scale(4.635)"><rect width="6" height="6"></rect></g>
<g transform="translate(54,459) scale(4.635)"><rect width="6" height="6"></rect></g>
<g transform="translate(81,459) scale(4.635)"><rect width="6" height="6"></rect></g>
<g transform="translate(189,459) scale(4.635)"><rect width="6" height="6"></rect></g>
<g transform="translate(243,459) scale(4.635)"><rect width="6" height="6"></rect></g>
<g transform="translate(324,459) scale(4.635)"><rect width="6" height="6"></rect></g>
<g transform="translate(378,459) scale(4.635)"><rect width="6" height="6"></rect></g>
<g transform="translate(459,459) scale(4.635)"><rect width="6" height="6"></rect></g>
<g transform="translate(513,459) scale(4.635)"><rect width="6" height="6"></rect></g>
<g transform="translate(540,459) scale(4.635)"><rect width="6" height="6"></rect></g>
<g transform="translate(567,459) scale(4.635)"><rect width="6" height="6"></rect></g>
<g transform="translate(621,459) scale(4.635)"><rect width="6" height="6"></rect></g>
<g transform="translate(648,459) scale(4.635)"><rect width="6" height="6"></rect></g>
<g transform="translate(702,459) scale(4.635)"><rect width="6" height="6"></rect></g>
<g transform="translate(729,459) scale(4.635)"><rect width="6" height="6"></rect></g>
<g transform="translate(756,459) scale(4.635)"><rect width="6" height="6"></rect></g>
<g transform="translate(783,459) scale(4.635)"><rect width="6" height="6"></rect></g>
<g transform="translate(864,459) scale(4.635)"><rect width="6" height="6"></rect></g>
<g transform="translate(891,459) scale(4.635)"><rect width="6" height="6"></rect></g>
<g transform="translate(108,486) scale(4.635)"><rect width="6" height="6"></rect></g>
<g transform="translate(135,486) scale(4.635)"><rect width="6" height="6"></rect></g>
<g transform="translate(162,486) scale(4.635)"><rect width="6" height="6"></rect></g>
<g transform="translate(216,486) scale(4.635)"><rect width="6" height="6"></rect></g>
<g transform="translate(243,486) scale(4.635)"><rect width="6" height="6"></rect></g>
<g transform="translate(351,486) scale(4.635)"><rect width="6" height="6"></rect></g>
<g transform="translate(405,486) scale(4.635)"><rect width="6" height="6"></rect></g>
<g transform="translate(459,486) scale(4.635)"><rect width="6" height="6"></rect></g>
<g transform="translate(486,486) scale(4.635)"><rect width="6" height="6"></rect></g>
<g transform="translate(540,486) scale(4.635)"><rect width="6" height="6"></rect></g>
<g transform="translate(675,486) scale(4.635)"><rect width="6" height="6"></rect></g>
<g transform="translate(729,486) scale(4.635)"><rect width="6" height="6"></rect></g>
<g transform="translate(783,486) scale(4.635)"><rect width="6" height="6"></rect></g>
<g transform="translate(810,486) scale(4.635)"><rect width="6" height="6"></rect></g>
<g transform="translate(837,486) scale(4.635)"><rect width="6" height="6"></rect></g>
<g transform="translate(864,486) scale(4.635)"><rect width="6" height="6"></rect></g>
<g transform="translate(918,486) scale(4.635)"><rect width="6" height="6"></rect></g>
<g transform="translate(54,513) scale(4.635)"><rect width="6" height="6"></rect></g>
<g transform="translate(81,513) scale(4.635)"><rect width="6" height="6"></rect></g>
<g transform="translate(135,513) scale(4.635)"><rect width="6" height="6"></rect></g>
<g transform="translate(162,513) scale(4.635)"><rect width="6" height="6"></rect></g>
<g transform="translate(243,513) scale(4.635)"><rect width="6" height="6"></rect></g>
<g transform="translate(270,513) scale(4.635)"><rect width="6" height="6"></rect></g>
<g transform="translate(324,513) scale(4.635)"><rect width="6" height="6"></rect></g>
<g transform="translate(351,513) scale(4.635)"><rect width="6" height="6"></rect></g>
<g transform="translate(378,513) scale(4.635)"><rect width="6" height="6"></rect></g>
<g transform="translate(405,513) scale(4.635)"><rect width="6" height="6"></rect></g>
<g transform="translate(432,513) scale(4.635)"><rect width="6" height="6"></rect></g>
<g transform="translate(513,513) scale(4.635)"><rect width="6" height="6"></rect></g>
<g transform="translate(567,513) scale(4.635)"><rect width="6" height="6"></rect></g>
<g transform="translate(594,513) scale(4.635)"><rect width="6" height="6"></rect></g>
<g transform="translate(621,513) scale(4.635)"><rect width="6" height="6"></rect></g>
<g transform="translate(675,513) scale(4.635)"><rect width="6" height="6"></rect></g>
<g transform="translate(702,513) scale(4.635)"><rect width="6" height="6"></rect></g>
<g transform="translate(756,513) scale(4.635)"><rect width="6" height="6"></rect></g>
<g transform="translate(783,513) scale(4.635)"><rect width="6" height="6"></rect></g>
<g transform="translate(81,540) scale(4.635)"><rect width="6" height="6"></rect></g>
<g transform="translate(162,540) scale(4.635)"><rect width="6" height="6"></rect></g>
<g transform="translate(216,540) scale(4.635)"><rect width="6" height="6"></rect></g>
<g transform="translate(297,540) scale(4.635)"><rect width="6" height="6"></rect></g>
<g transform="translate(378,540) scale(4.635)"><rect width="6" height="6"></rect></g>
<g transform="translate(432,540) scale(4.635)"><rect width="6" height="6"></rect></g>
<g transform="translate(459,540) scale(4.635)"><rect width="6" height="6"></rect></g>
<g transform="translate(486,540) scale(4.635)"><rect width="6" height="6"></rect></g>
<g transform="translate(540,540) scale(4.635)"><rect width="6" height="6"></rect></g>
<g transform="translate(621,540) scale(4.635)"><rect width="6" height="6"></rect></g>
<g transform="translate(648,540) scale(4.635)"><rect width="6" height="6"></rect></g>
<g transform="translate(729,540) scale(4.635)"><rect width="6" height="6"></rect></g>
<g transform="translate(756,540) scale(4.635)"><rect width="6" height="6"></rect></g>
<g transform="translate(783,540) scale(4.635)"><rect width="6" height="6"></rect></g>
<g transform="translate(864,540) scale(4.635)"><rect width="6" height="6"></rect></g>
<g transform="translate(891,540) scale(4.635)"><rect width="6" height="6"></rect></g>
<g transform="translate(918,540) scale(4.635)"><rect width="6" height="6"></rect></g>
<g transform="translate(81,567) scale(4.635)"><rect width="6" height="6"></rect></g>
<g transform="translate(108,567) scale(4.635)"><rect width="6" height="6"></rect></g>
<g transform="translate(162,567) scale(4.635)"><rect width="6" height="6"></rect></g>
<g transform="translate(243,567) scale(4.635)"><rect width="6" height="6"></rect></g>
<g transform="translate(378,567) scale(4.635)"><rect width="6" height="6"></rect></g>
<g transform="translate(405,567) scale(4.635)"><rect width="6" height="6"></rect></g>
<g transform="translate(486,567) scale(4.635)"><rect width="6" height="6"></rect></g>
<g transform="translate(513,567) scale(4.635)"><rect width="6" height="6"></rect></g>
<g transform="translate(540,567) scale(4.635)"><rect width="6" height="6"></rect></g>
<g transform="translate(567,567) scale(4.635)"><rect width="6" height="6"></rect></g>
<g transform="translate(621,567) scale(4.635)"><rect width="6" height="6"></rect></g>
<g transform="translate(648,567) scale(4.635)"><rect width="6" height="6"></rect></g>
<g transform="translate(675,567) scale(4.635)"><rect width="6" height="6"></rect></g>
<g transform="translate(702,567) scale(4.635)"><rect width="6" height="6"></rect></g>
<g transform="translate(756,567) scale(4.635)"><rect width="6" height="6"></rect></g>
<g transform="translate(810,567) scale(4.635)"><rect width="6" height="6"></rect></g>
<g transform="translate(837,567) scale(4.635)"><rect width="6" height="6"></rect></g>
<g transform="translate(864,567) scale(4.635)"><rect width="6" height="6"></rect></g>
<g transform="translate(918,567) scale(4.635)"><rect width="6" height="6"></rect></g>
<g transform="translate(81,594) scale(4.635)"><rect width="6" height="6"></rect></g>
<g transform="translate(135,594) scale(4.635)"><rect width="6" height="6"></rect></g>
<g transform="translate(216,594) scale(4.635)"><rect width="6" height="6"></rect></g>
<g transform="translate(270,594) scale(4.635)"><rect width="6" height="6"></rect></g>
<g transform="translate(405,594) scale(4.635)"><rect width="6" height="6"></rect></g>
<g transform="translate(459,594) scale(4.635)"><rect width="6" height="6"></rect></g>
<g transform="translate(513,594) scale(4.635)"><rect width="6" height="6"></rect></g>
<g transform="translate(540,594) scale(4.635)"><rect width="6" height="6"></rect></g>
<g transform="translate(648,594) scale(4.635)"><rect width="6" height="6"></rect></g>
<g transform="translate(729,594) scale(4.635)"><rect width="6" height="6"></rect></g>
<g transform="translate(756,594) scale(4.635)"><rect width="6" height="6"></rect></g>
<g transform="translate(783,594) scale(4.635)"><rect width="6" height="6"></rect></g>
<g transform="translate(810,594) scale(4.635)"><rect width="6" height="6"></rect></g>
<g transform="translate(837,594) scale(4.635)"><rect width="6" height="6"></rect></g>
<g transform="translate(891,594) scale(4.635)"><rect width="6" height="6"></rect></g>
<g transform="translate(918,594) scale(4.635)"><rect width="6" height="6"></rect></g>
<g transform="translate(54,621) scale(4.635)"><rect width="6" height="6"></rect></g>
<g transform="translate(135,621) scale(4.635)"><rect width="6" height="6"></rect></g>
<g transform="translate(162,621) scale(4.635)"><rect width="6" height="6"></rect></g>
<g transform="translate(189,621) scale(4.635)"><rect width="6" height="6"></rect></g>
<g transform="translate(351,621) scale(4.635)"><rect width="6" height="6"></rect></g>
<g transform="translate(378,621) scale(4.635)"><rect width="6" height="6"></rect></g>
<g transform="translate(405,621) scale(4.635)"><rect width="6" height="6"></rect></g>
<g transform="translate(513,621) scale(4.635)"><rect width="6" height="6"></rect></g>
<g transform="translate(594,621) scale(4.635)"><rect width="6" height="6"></rect></g>
<g transform="translate(621,621) scale(4.635)"><rect width="6" height="6"></rect></g>
<g transform="translate(648,621) scale(4.635)"><rect width="6" height="6"></rect></g>
<g transform="translate(702,621) scale(4.635)"><rect width="6" height="6"></rect></g>
<g transform="translate(783,621) scale(4.635)"><rect width="6" height="6"></rect></g>
<g transform="translate(864,621) scale(4.635)"><rect width="6" height="6"></rect></g>
<g transform="translate(918,621) scale(4.635)"><rect width="6" height="6"></rect></g>
<g transform="translate(54,648) scale(4.635)"><rect width="6" height="6"></rect></g>
<g transform="translate(108,648) scale(4.635)"><rect width="6" height="6"></rect></g>
<g transform="translate(162,648) scale(4.635)"><rect width="6" height="6"></rect></g>
<g transform="translate(189,648) scale(4.635)"><rect width="6" height="6"></rect></g>
<g transform="translate(216,648) scale(4.635)"><rect width="6" height="6"></rect></g>
<g transform="translate(270,648) scale(4.635)"><rect width="6" height="6"></rect></g>
<g transform="translate(297,648) scale(4.635)"><rect width="6" height="6"></rect></g>
<g transform="translate(324,648) scale(4.635)"><rect width="6" height="6"></rect></g>
<g transform="translate(378,648) scale(4.635)"><rect width="6" height="6"></rect></g>
<g transform="translate(432,648) scale(4.635)"><rect width="6" height="6"></rect></g>
<g transform="translate(486,648) scale(4.635)"><rect width="6" height="6"></rect></g>
<g transform="translate(594,648) scale(4.635)"><rect width="6" height="6"></rect></g>
<g transform="translate(621,648) scale(4.635)"><rect width="6" height="6"></rect></g>
<g transform="translate(648,648) scale(4.635)"><rect width="6" height="6"></rect></g>
<g transform="translate(783,648) scale(4.635)"><rect width="6" height="6"></rect></g>
<g transform="translate(864,648) scale(4.635)"><rect width="6" height="6"></rect></g>
<g transform="translate(54,675) scale(4.635)"><rect width="6" height="6"></rect></g>
<g transform="translate(108,675) scale(4.635)"><rect width="6" height="6"></rect></g>
<g transform="translate(135,675) scale(4.635)"><rect width="6" height="6"></rect></g>
<g transform="translate(189,675) scale(4.635)"><rect width="6" height="6"></rect></g>
<g transform="translate(270,675) scale(4.635)"><rect width="6" height="6"></rect></g>
<g transform="translate(405,675) scale(4.635)"><rect width="6" height="6"></rect></g>
<g transform="translate(432,675) scale(4.635)"><rect width="6" height="6"></rect></g>
<g transform="translate(513,675) scale(4.635)"><rect width="6" height="6"></rect></g>
<g transform="translate(567,675) scale(4.635)"><rect width="6" height="6"></rect></g>
<g transform="translate(594,675) scale(4.635)"><rect width="6" height="6"></rect></g>
<g transform="translate(621,675) scale(4.635)"><rect width="6" height="6"></rect></g>
<g transform="translate(702,675) scale(4.635)"><rect width="6" height="6"></rect></g>
<g transform="translate(783,675) scale(4.635)"><rect width="6" height="6"></rect></g>
<g transform="translate(837,675) scale(4.635)"><rect width="6" height="6"></rect></g>
<g transform="translate(864,675) scale(4.635)"><rect width="6" height="6"></rect></g>
<g transform="translate(918,675) scale(4.635)"><rect width="6" height="6"></rect></g>
<g transform="translate(54,702) scale(4.635)"><rect width="6" height="6"></rect></g>
<g transform="translate(135,702) scale(4.635)"><rect width="6" height="6"></rect></g>
<g transform="translate(162,702) scale(4.635)"><rect width="6" height="6"></rect></g>
<g transform="translate(189,702) scale(4.635)"><rect width="6" height="6"></rect></g>
<g transform="translate(216,702) scale(4.635)"><rect width="6" height="6"></rect></g>
<g transform="translate(243,702) scale(4.635)"><rect width="6" height="6"></rect></g>
<g transform="translate(270,702) scale(4.635)"><rect width="6" height="6"></rect></g>
<g transform="translate(324,702) scale(4.635)"><rect width="6" height="6"></rect></g>
<g transform="translate(405,702) scale(4.635)"><rect width="6" height="6"></rect></g>
<g transform="translate(432,702) scale(4.635)"><rect width="6" height="6"></rect></g>
<g transform="translate(459,702) scale(4.635)"><rect width="6" height="6"></rect></g>
<g transform="translate(486,702) scale(4.635)"><rect width="6" height="6"></rect></g>
<g transform="translate(513,702) scale(4.635)"><rect width="6" height="6"></rect></g>
<g transform="translate(540,702) scale(4.635)"><rect width="6" height="6"></rect></g>
<g transform="translate(594,702) scale(4.635)"><rect width="6" height="6"></rect></g>
<g transform="translate(621,702) scale(4.635)"><rect width="6" height="6"></rect></g>
<g transform="translate(702,702) scale(4.635)"><rect width="6" height="6"></rect></g>
<g transform="translate(729,702) scale(4.635)"><rect width="6" height="6"></rect></g>
<g transform="translate(756,702) scale(4.635)"><rect width="6" height="6"></rect></g>
<g transform="translate(783,702) scale(4.635)"><rect width="6" height="6"></rect></g>
<g transform="translate(810,702) scale(4.635)"><rect width="6" height="6"></rect></g>
<g transform="translate(837,702) scale(4.635)"><rect width="6" height="6"></rect></g>
<g transform="translate(891,702) scale(4.635)"><rect width="6" height="6"></rect></g>
<g transform="translate(270,729) scale(4.635)"><rect width="6" height="6"></rect></g>
<g transform="translate(297,729) scale(4.635)"><rect width="6" height="6"></rect></g>
<g transform="translate(432,729) scale(4.635)"><rect width="6" height="6"></rect></g>
<g transform="translate(459,729) scale(4.635)"><rect width="6" height="6"></rect></g>
<g transform="translate(567,729) scale(4.635)"><rect width="6" height="6"></rect></g>
<g transform="translate(594,729) scale(4.635)"><rect width="6" height="6"></rect></g>
<g transform="translate(675,729) scale(4.635)"><rect width="6" height="6"></rect></g>
<g transform="translate(702,729) scale(4.635)"><rect width="6" height="6"></rect></g>
<g transform="translate(810,729) scale(4.635)"><rect width="6" height="6"></rect></g>
<g transform="translate(864,729) scale(4.635)"><rect width="6" height="6"></rect></g>
<g transform="translate(918,729) scale(4.635)"><rect width="6" height="6"></rect></g>
<g transform="translate(351,756) scale(4.635)"><rect width="6" height="6"></rect></g>
<g transform="translate(405,756) scale(4.635)"><rect width="6" height="6"></rect></g>
<g transform="translate(432,756) scale(4.635)"><rect width="6" height="6"></rect></g>
<g transform="translate(459,756) scale(4.635)"><rect width="6" height="6"></rect></g>
<g transform="translate(486,756) scale(4.635)"><rect width="6" height="6"></rect></g>
<g transform="translate(540,756) scale(4.635)"><rect width="6" height="6"></rect></g>
<g transform="translate(567,756) scale(4.635)"><rect width="6" height="6"></rect></g>
<g transform="translate(648,756) scale(4.635)"><rect width="6" height="6"></rect></g>
<g transform="translate(702,756) scale(4.635)"><rect width="6" height="6"></rect></g>
<g transform="translate(756,756) scale(4.635)"><rect width="6" height="6"></rect></g>
<g transform="translate(810,756) scale(4.635)"><rect width="6" height="6"></rect></g>
<g transform="translate(837,756) scale(4.635)"><rect width="6" height="6"></rect></g>
<g transform="translate(891,756) scale(4.635)"><rect width="6" height="6"></rect></g>
<g transform="translate(297,783) scale(4.635)"><rect width="6" height="6"></rect></g>
<g transform="translate(324,783) scale(4.635)"><rect width="6" height="6"></rect></g>
<g transform="translate(378,783) scale(4.635)"><rect width="6" height="6"></rect></g>
<g transform="translate(405,783) scale(4.635)"><rect width="6" height="6"></rect></g>
<g transform="translate(459,783) scale(4.635)"><rect width="6" height="6"></rect></g>
<g transform="translate(486,783) scale(4.635)"><rect width="6" height="6"></rect></g>
<g transform="translate(567,783) scale(4.635)"><rect width="6" height="6"></rect></g>
<g transform="translate(594,783) scale(4.635)"><rect width="6" height="6"></rect></g>
<g transform="translate(675,783) scale(4.635)"><rect width="6" height="6"></rect></g>
<g transform="translate(702,783) scale(4.635)"><rect width="6" height="6"></rect></g>
<g transform="translate(810,783) scale(4.635)"><rect width="6" height="6"></rect></g>
<g transform="translate(837,783) scale(4.635)"><rect width="6" height="6"></rect></g>
<g transform="translate(864,783) scale(4.635)"><rect width="6" height="6"></rect></g>
<g transform="translate(891,783) scale(4.635)"><rect width="6" height="6"></rect></g>
<g transform="translate(918,783) scale(4.635)"><rect width="6" height="6"></rect></g>
<g transform="translate(270,810) scale(4.635)"><rect width="6" height="6"></rect></g>
<g transform="translate(297,810) scale(4.635)"><rect width="6" height="6"></rect></g>
<g transform="translate(324,810) scale(4.635)"><rect width="6" height="6"></rect></g>
<g transform="translate(351,810) scale(4.635)"><rect width="6" height="6"></rect></g>
<g transform="translate(405,810) scale(4.635)"><rect width="6" height="6"></rect></g>
<g transform="translate(432,810) scale(4.635)"><rect width="6" height="6"></rect></g>
<g transform="translate(486,810) scale(4.635)"><rect width="6" height="6"></rect></g>
<g transform="translate(594,810) scale(4.635)"><rect width="6" height="6"></rect></g>
<g transform="translate(621,810) scale(4.635)"><rect width="6" height="6"></rect></g>
<g transform="translate(648,810) scale(4.635)"><rect width="6" height="6"></rect></g>
<g transform="translate(702,810) scale(4.635)"><rect width="6" height="6"></rect></g>
<g transform="translate(729,810) scale(4.635)"><rect width="6" height="6"></rect></g>
<g transform="translate(756,810) scale(4.635)"><rect width="6" height="6"></rect></g>
<g transform="translate(783,810) scale(4.635)"><rect width="6" height="6"></rect></g>
<g transform="translate(810,810) scale(4.635)"><rect width="6" height="6"></rect></g>
<g transform="translate(891,810) scale(4.635)"><rect width="6" height="6"></rect></g>
<g transform="translate(918,810) scale(4.635)"><rect width="6" height="6"></rect></g>
<g transform="translate(270,837) scale(4.635)"><rect width="6" height="6"></rect></g>
<g transform="translate(351,837) scale(4.635)"><rect width="6" height="6"></rect></g>
<g transform="translate(486,837) scale(4.635)"><rect width="6" height="6"></rect></g>
<g transform="translate(513,837) scale(4.635)"><rect width="6" height="6"></rect></g>
<g transform="translate(729,837) scale(4.635)"><rect width="6" height="6"></rect></g>
<g transform="translate(810,837) scale(4.635)"><rect width="6" height="6"></rect></g>
<g transform="translate(837,837) scale(4.635)"><rect width="6" height="6"></rect></g>
<g transform="translate(891,837) scale(4.635)"><rect width="6" height="6"></rect></g>
<g transform="translate(270,864) scale(4.635)"><rect width="6" height="6"></rect></g>
<g transform="translate(297,864) scale(4.635)"><rect width="6" height="6"></rect></g>
<g transform="translate(432,864) scale(4.635)"><rect width="6" height="6"></rect></g>
<g transform="translate(486,864) scale(4.635)"><rect width="6" height="6"></rect></g>
<g transform="translate(513,864) scale(4.635)"><rect width="6" height="6"></rect></g>
<g transform="translate(594,864) scale(4.635)"><rect width="6" height="6"></rect></g>
<g transform="translate(621,864) scale(4.635)"><rect width="6" height="6"></rect></g>
<g transform="translate(648,864) scale(4.635)"><rect width="6" height="6"></rect></g>
<g transform="translate(729,864) scale(4.635)"><rect width="6" height="6"></rect></g>
<g transform="translate(756,864) scale(4.635)"><rect width="6" height="6"></rect></g>
<g transform="translate(405,891) scale(4.635)"><rect width="6" height="6"></rect></g>
<g transform="translate(432,891) scale(4.635)"><rect width="6" height="6"></rect></g>
<g transform="translate(486,891) scale(4.635)"><rect width="6" height="6"></rect></g>
<g transform="translate(594,891) scale(4.635)"><rect width="6" height="6"></rect></g>
<g transform="translate(621,891) scale(4.635)"><rect width="6" height="6"></rect></g>
<g transform="translate(675,891) scale(4.635)"><rect width="6" height="6"></rect></g>
<g transform="translate(729,891) scale(4.635)"><rect width="6" height="6"></rect></g>
<g transform="translate(783,891) scale(4.635)"><rect width="6" height="6"></rect></g>
<g transform="translate(837,891) scale(4.635)"><rect width="6" height="6"></rect></g>
<g transform="translate(324,918) scale(4.635)"><rect width="6" height="6"></rect></g>
<g transform="translate(351,918) scale(4.635)"><rect width="6" height="6"></rect></g>
<g transform="translate(378,918) scale(4.635)"><rect width="6" height="6"></rect></g>
<g transform="translate(513,918) scale(4.635)"><rect width="6" height="6"></rect></g>
<g transform="translate(540,918) scale(4.635)"><rect width="6" height="6"></rect></g>
<g transform="translate(567,918) scale(4.635)"><rect width="6" height="6"></rect></g>
<g transform="translate(594,918) scale(4.635)"><rect width="6" height="6"></rect></g>
<g transform="translate(621,918) scale(4.635)"><rect width="6" height="6"></rect></g>
<g transform="translate(675,918) scale(4.635)"><rect width="6" height="6"></rect></g>
<g transform="translate(702,918) scale(4.635)"><rect width="6" height="6"></rect></g>
<g transform="translate(729,918) scale(4.635)"><rect width="6" height="6"></rect></g>
<g transform="translate(864,918) scale(4.635)"><rect width="6" height="6"></rect></g>
<g transform="translate(891,918) scale(4.635)"><rect width="6" height="6"></rect></g>
</g></g></mask></defs>
<rect width="999" height="999" fill="#ffffff" x="0" y="0"></rect>
<rect x="0" y="0" width="999" height="999" mask="url(#qrmask)" fill="#000000"></rect>
<g><g transform="translate(54,54)" fill="#000000"><g transform="scale(13.5)"><path d="M4.5,14h5.1C12,14,14,12,14,9.6V4.5C14,2,12,0,9.5,0H4.4C2,0,0,2,0,4.4v5.1C0,12,2,14,4.5,14z M12,4.8v4.4 c0,1.5-1.3,2.8-2.8,2.8H4.8C3.2,12,2,10.8,2,9.2V4.8C2,3.3,3.3,2,4.8,2h4.4C10.8,2,12,3.2,12,4.8z"></path></g></g>
<g transform="translate(108,108)" fill="#000000"><g transform="scale(13.5)"><path d="M6,1.7v2.7C6,5.2,5.2,6,4.3,6H1.7C0.7,6,0,5.3,0,4.3V1.7C0,0.8,0.8,0,1.7,0h2.7C5.3,0,6,0.7,6,1.7z"></path></g></g>
<g transform="translate(756,54)" fill="#000000"><g transform="scale(13.5)"><path d="M4.5,14h5.1C12,14,14,12,14,9.6V4.5C14,2,12,0,9.5,0H4.4C2,0,0,2,0,4.4v5.1C0,12,2,14,4.5,14z M12,4.8v4.4 c0,1.5-1.3,2.8-2.8,2.8H4.8C3.2,12,2,10.8,2,9.2V4.8C2,3.3,3.3,2,4.8,2h4.4C10.8,2,12,3.2,12,4.8z"></path></g></g>
<g transform="translate(810,108)" fill="#000000"><g transform="scale(13.5)"><path d="M6,1.7v2.7C6,5.2,5.2,6,4.3,6H1.7C0.7,6,0,5.3,0,4.3V1.7C0,0.8,0.8,0,1.7,0h2.7C5.3,0,6,0.7,6,1.7z"></path></g></g>
<g transform="translate(54,756)" fill="#000000"><g transform="scale(13.5)"><path d="M4.5,14h5.1C12,14,14,12,14,9.6V4.5C14,2,12,0,9.5,0H4.4C2,0,0,2,0,4.4v5.1C0,12,2,14,4.5,14z M12,4.8v4.4 c0,1.5-1.3,2.8-2.8,2.8H4.8C3.2,12,2,10.8,2,9.2V4.8C2,3.3,3.3,2,4.8,2h4.4C10.8,2,12,3.2,12,4.8z"></path></g></g>
<g transform="translate(108,810)" fill="#000000"><g transform="scale(13.5)"><path d="M6,1.7v2.7C6,5.2,5.2,6,4.3,6H1.7C0.7,6,0,5.3,0,4.3V1.7C0,0.8,0.8,0,1.7,0h2.7C5.3,0,6,0.7,6,1.7z"></path></g></g></g>
</svg>